<?xml version="1.0" encoding="utf-8"?>
<svg xmlns="http://www.w3.org/2000/svg" xmlns:xlink="http://www.w3.org/1999/xlink" style="margin: auto; background: rgb(255, 255, 255); display: block; shape-rendering: auto;" width="221px" height="221px" viewBox="0 0 100 100" preserveAspectRatio="xMidYMid">
<g transform="rotate(0 50 50)">
  <rect x="48.5" y="29.5" rx="0" ry="0" width="3" height="7" fill="#efefef">
    <animate attributeName="opacity" values="1;0" keyTimes="0;1" dur="1.01010101010101s" begin="-0.9182736455463728s" repeatCount="indefinite"></animate>
  </rect>
</g><g transform="rotate(32.72727272727273 50 50)">
  <rect x="48.5" y="29.5" rx="0" ry="0" width="3" height="7" fill="#efefef">
    <animate attributeName="opacity" values="1;0" keyTimes="0;1" dur="1.01010101010101s" begin="-0.8264462809917354s" repeatCount="indefinite"></animate>
  </rect>
</g><g transform="rotate(65.45454545454545 50 50)">
  <rect x="48.5" y="29.5" rx="0" ry="0" width="3" height="7" fill="#efefef">
    <animate attributeName="opacity" values="1;0" keyTimes="0;1" dur="1.01010101010101s" begin="-0.7346189164370982s" repeatCount="indefinite"></animate>
  </rect>
</g><g transform="rotate(98.18181818181819 50 50)">
  <rect x="48.5" y="29.5" rx="0" ry="0" width="3" height="7" fill="#efefef">
    <animate attributeName="opacity" values="1;0" keyTimes="0;1" dur="1.01010101010101s" begin="-0.642791551882461s" repeatCount="indefinite"></animate>
  </rect>
</g><g transform="rotate(130.9090909090909 50 50)">
  <rect x="48.5" y="29.5" rx="0" ry="0" width="3" height="7" fill="#efefef">
    <animate attributeName="opacity" values="1;0" keyTimes="0;1" dur="1.01010101010101s" begin="-0.5509641873278237s" repeatCount="indefinite"></animate>
  </rect>
</g><g transform="rotate(163.63636363636363 50 50)">
  <rect x="48.5" y="29.5" rx="0" ry="0" width="3" height="7" fill="#efefef">
    <animate attributeName="opacity" values="1;0" keyTimes="0;1" dur="1.01010101010101s" begin="-0.4591368227731864s" repeatCount="indefinite"></animate>
  </rect>
</g><g transform="rotate(196.36363636363637 50 50)">
  <rect x="48.5" y="29.5" rx="0" ry="0" width="3" height="7" fill="#efefef">
    <animate attributeName="opacity" values="1;0" keyTimes="0;1" dur="1.01010101010101s" begin="-0.3673094582185491s" repeatCount="indefinite"></animate>
  </rect>
</g><g transform="rotate(229.0909090909091 50 50)">
  <rect x="48.5" y="29.5" rx="0" ry="0" width="3" height="7" fill="#efefef">
    <animate attributeName="opacity" values="1;0" keyTimes="0;1" dur="1.01010101010101s" begin="-0.27548209366391185s" repeatCount="indefinite"></animate>
  </rect>
</g><g transform="rotate(261.8181818181818 50 50)">
  <rect x="48.5" y="29.5" rx="0" ry="0" width="3" height="7" fill="#efefef">
    <animate attributeName="opacity" values="1;0" keyTimes="0;1" dur="1.01010101010101s" begin="-0.18365472910927455s" repeatCount="indefinite"></animate>
  </rect>
</g><g transform="rotate(294.54545454545456 50 50)">
  <rect x="48.5" y="29.5" rx="0" ry="0" width="3" height="7" fill="#efefef">
    <animate attributeName="opacity" values="1;0" keyTimes="0;1" dur="1.01010101010101s" begin="-0.09182736455463728s" repeatCount="indefinite"></animate>
  </rect>
</g><g transform="rotate(327.27272727272725 50 50)">
  <rect x="48.5" y="29.5" rx="0" ry="0" width="3" height="7" fill="#efefef">
    <animate attributeName="opacity" values="1;0" keyTimes="0;1" dur="1.01010101010101s" begin="0s" repeatCount="indefinite"></animate>
  </rect>
</g>
</svg>
